<?xml version="1.0"?>
<svg xmlns="http://www.w3.org/2000/svg" xmlns:xlink="http://www.w3.org/1999/xlink" xmlns:svgjs="http://svgjs.com/svgjs" version="1.1" width="512" height="512" x="0" y="0" viewBox="0 0 512 512" style="enable-background:new 0 0 512 512" xml:space="preserve" class=""><g>
<circle xmlns="http://www.w3.org/2000/svg" style="" cx="256" cy="256" r="256" fill="#00c7ff" data-original="#00c7ff" class=""/>
<path xmlns="http://www.w3.org/2000/svg" style="" d="M512,256c0-0.037-0.001-0.073-0.001-0.11L392.127,136.018L100.5,375.982l135.219,135.219  C242.411,511.726,249.173,512,256,512C397.385,512,512,397.385,512,256z" fill="#0093c4" data-original="#0093c4" class=""/>
<polygon xmlns="http://www.w3.org/2000/svg" style="" points="392.127,136.018 256,136.018 243.842,349.394 392.127,337.236 " fill="#9abadb" data-original="#9abadb" class=""/>
<g xmlns="http://www.w3.org/2000/svg">
	<polygon style="" points="119.873,136.018 119.873,337.236 256,349.394 256,136.018  " fill="#d1e8ff" data-original="#d1e8ff" class=""/>
	<polygon style="" points="411.5,337.236 256,337.236 243.842,356.609 256,375.982 411.5,375.982  " fill="#d1e8ff" data-original="#d1e8ff" class=""/>
</g>
<rect xmlns="http://www.w3.org/2000/svg" x="100.5" y="337.24" style="" width="155.5" height="38.747" fill="#f5f5ff" data-original="#f5f5ff" class=""/>
<polygon xmlns="http://www.w3.org/2000/svg" style="" points="373.904,154.24 256,154.24 243.842,236.627 256,319.013 373.904,319.013 " fill="#294b6e" data-original="#294b6e" class=""/>
<rect xmlns="http://www.w3.org/2000/svg" x="138.1" y="154.24" style="" width="117.9" height="164.77" fill="#6283a3" data-original="#6283a3" class=""/>
<polygon xmlns="http://www.w3.org/2000/svg" style="" points="209.124,284.901 160.85,236.627 209.124,188.353 222.009,201.238 186.62,236.627   222.009,272.016 " fill="#f5f5ff" data-original="#f5f5ff" class=""/>
<g xmlns="http://www.w3.org/2000/svg">
	<polygon style="" points="302.876,284.901 289.991,272.016 325.38,236.627 289.991,201.238 302.876,188.353    351.15,236.627  " fill="#d1e8ff" data-original="#d1e8ff" class=""/>
	
		<rect x="246.888" y="179.052" transform="matrix(-0.9808 -0.1951 0.1951 -0.9808 460.912 518.6826)" style="" width="18.223" height="115.182" fill="#d1e8ff" data-original="#d1e8ff" class=""/>
</g>
<g xmlns="http://www.w3.org/2000/svg">
</g>
<g xmlns="http://www.w3.org/2000/svg">
</g>
<g xmlns="http://www.w3.org/2000/svg">
</g>
<g xmlns="http://www.w3.org/2000/svg">
</g>
<g xmlns="http://www.w3.org/2000/svg">
</g>
<g xmlns="http://www.w3.org/2000/svg">
</g>
<g xmlns="http://www.w3.org/2000/svg">
</g>
<g xmlns="http://www.w3.org/2000/svg">
</g>
<g xmlns="http://www.w3.org/2000/svg">
</g>
<g xmlns="http://www.w3.org/2000/svg">
</g>
<g xmlns="http://www.w3.org/2000/svg">
</g>
<g xmlns="http://www.w3.org/2000/svg">
</g>
<g xmlns="http://www.w3.org/2000/svg">
</g>
<g xmlns="http://www.w3.org/2000/svg">
</g>
<g xmlns="http://www.w3.org/2000/svg">
</g>
</g></svg>
