<?xml version="1.0" standalone="no"?>
<!DOCTYPE svg PUBLIC "-//W3C//DTD SVG 20010904//EN"
 "http://www.w3.org/TR/2001/REC-SVG-20010904/DTD/svg10.dtd">
<svg version="1.0" xmlns="http://www.w3.org/2000/svg"
 width="500.000000pt" height="500.000000pt" viewBox="0 0 500.000000 500.000000"
 preserveAspectRatio="xMidYMid meet">
<metadata>
Created by potrace 1.16, written by Peter Selinger 2001-2019
</metadata>
<g transform="translate(0.000000,500.000000) scale(0.100000,-0.100000)"
fill="#000000" stroke="none">
<path d="M2110 4755 c-217 -68 -687 -213 -1044 -324 -356 -110 -650 -201 -651
-203 -14 -14 -37 -332 -42 -568 -14 -689 81 -1275 294 -1820 86 -219 242 -510
364 -677 347 -475 811 -816 1379 -1014 l118 -41 84 27 c901 298 1539 951 1854
1902 98 297 155 563 200 943 32 265 26 998 -10 1206 l-7 41 -357 111 c-1456
455 -1738 542 -1762 541 -14 0 -203 -56 -420 -124z m35 -639 c477 -5 576 -15
766 -76 510 -165 824 -554 869 -1075 21 -242 -18 -474 -110 -660 -61 -124
-122 -205 -237 -315 -245 -237 -578 -366 -998 -390 -88 -5 -382 -10 -654 -11
l-494 -2 -19 23 c-22 27 -24 102 -3 123 9 10 44 18 92 21 56 5 94 14 133 34
76 37 97 78 111 214 15 153 7 1737 -10 1798 -26 95 -98 149 -201 150 -64 0
-120 14 -132 32 -4 7 -8 32 -8 56 0 32 6 49 23 66 23 22 25 23 232 19 116 -1
404 -5 640 -7z m410 -3056 c10 -55 20 -100 22 -100 2 0 45 28 95 61 50 34 87
55 83 48 -5 -8 -29 -45 -55 -84 -26 -38 -49 -75 -53 -81 -5 -8 23 -17 86 -29
50 -10 98 -21 105 -24 7 -4 -31 -15 -85 -25 -54 -10 -101 -20 -105 -23 -4 -2
19 -44 52 -94 33 -49 58 -89 55 -89 -3 0 -39 23 -80 50 -42 28 -81 53 -89 56
-10 4 -18 -18 -31 -88 -10 -51 -21 -96 -25 -101 -3 -4 -15 38 -25 93 -10 55
-22 100 -27 100 -5 0 -41 -22 -81 -48 -40 -27 -78 -52 -86 -57 -17 -10 -15 -6
51 92 26 40 48 76 48 81 0 5 -48 17 -106 27 -118 21 -116 23 23 50 l92 17 -60
89 c-32 48 -59 91 -59 94 0 3 40 -22 90 -55 49 -33 91 -60 93 -60 2 0 12 45
22 100 10 55 21 100 25 100 4 0 15 -45 25 -100z"/>
<path d="M2000 2982 c0 -630 4 -1009 10 -1043 27 -143 178 -210 435 -194 376
23 600 159 736 449 81 173 119 376 119 637 0 232 -31 399 -108 577 -97 225
-272 402 -487 491 -131 55 -186 63 -457 68 l-248 5 0 -990z"/>
</g>
</svg>
